PathFileType	4	(X/Y/Z)	C:/Users/beibeiliu/ov580/test_trc/User2\sequence.18_training_dense_right.trc
DataRate	CameraRate	NumFrames	NumMarkers	Units	OrigDataRate	OrigDataStartFrame	OrigNumFrames
120	120	24	19	mm	120	322	429
Frame#	Time	ThumbCMC			ThumbMCP			ThumbIP			ThumbTip			IndexMCP			IndexPIP			IndexTip			MiddleMCP			MiddlePIP			MiddleTip			RingMCP			RingPIP			RingTip			PinkyMCP			PinkyPIP			PinkyTip			BackHand1			BackHand2			BackHand3	
		X0	Y0	Z0	X1	Y1	Z1	X2	Y2	Z2	X3	Y3	Z3	X4	Y4	Z4	X5	Y5	Z5	X6	Y6	Z6	X7	Y7	Z7	X8	Y8	Z8	X9	Y9	Z9	X10	Y10	Z10	X11	Y11	Z11	X12	Y12	Z12	X13	Y13	Z13	X14	Y14	Z14	X15	Y15	Z15	X16	Y16	Z16	X17	Y17	Z17	X18	Y18	Z18	
321	2.675	29.9103	25.8207	51.9946	6.43525	28.8613	28.8059	-13.2377	31.9957	-3.13722	-17.8466	25.7826	-31.1571	17.7939	35.5667	-30.1777	-2.67076	9.57807	-33.5769	2.98385	3.08386	-1.1574	28.6702	13.5061	-43.5391	8.04194	-11.9265	-35.5687	19.7549	-12.421	3.6681	36.8668	-3.83255	-40.3175	18.2737	-27.235	-28.1929	28.9061	-18.0768	2.87847	49.4698	-21.8457	-35.8312	28.3341	-38.4606	-20.3277	39.1627	-27.5077	10.7167	83.4575	14.7676	3.56588	96.3883	10.1925	34.3072	67.3751	33.2746	29.4186	
322	2.68333	30.3171	24.126	47.2799	10.8361	24.8718	22.9523	-7.54722	28.1154	-9.05056	-10.1903	22.1899	-32.4033	24.9536	33.607	-32.22	2.17465	8.97735	-38.6829	10.5333	-1.44124	-7.12634	32.8318	16.1536	-44.5374	12.3849	-12.0356	-39.015	22.8745	-11.2392	1.90574	44.1484	-6.7811	-44.8133	25.8777	-27.6806	-30.6167	37.0533	-17.8297	1.76941	59.873	-24.0383	-39.3586	36.1868	-36.969	-25.3525	47.031	-30.4448	8.44471	89.5981	12.5081	1.29272	99.8177	9.48096	33.3221	70.053	31.1068	32.3001	
323	2.69167	31.8555	19.5554	46.1428	11.9889	23.0765	18.4979	-2.64335	23.5468	-9.70769	-7.06199	20.6271	-39.2149	27.4529	32.6334	-37.0938	10.1579	5.50934	-43.5769	14.5045	-1.97231	-7.54267	42.5371	15.4718	-45.8547	18.4451	-13.9275	-40.7149	26.1441	-14.784	-4.21109	53.4708	-5.35719	-45.5467	30.6411	-26.3489	-34.3689	42.1332	-21.8672	-1.90837	66.5646	-22.9503	-40.2748	40.9863	-37.1616	-25.8159	49.7795	-30.3768	6.83131	89.2836	16.4569	4.00194	99.3156	11.7812	35.4036	69.407	33.3119	34.1738	
324	2.7	32.4117	18.8823	41.2052	11.6641	23.3763	14.5515	1.10278	21.7214	-16.3121	-2.98074	19.0463	-43.5321	30.0896	31.8464	-38.9815	12.4992	3.41672	-45.4538	19.1483	-3.59124	-8.55848	44.898	13.6152	-47.7469	24.3467	-16.6636	-42.5971	30.2436	-17.1505	-7.16662	57.2856	-7.42824	-47.1317	39.7098	-31.8493	-37.5259	44.9334	-21.006	-2.26261	69.0396	-21.3045	-40.1536	48.0335	-40.1449	-25.2021	53.7525	-31.4247	2.74882	94.4622	11.9324	4.15182	101.331	10.2874	35.6636	68.0869	32.3223	28.4079	
325	2.70833	33.4438	16.03	43.2845	12.8316	19.6561	13.6776	1.174	19.41	-18.7332	0.667789	15.5045	-47.2188	31.6587	27.8071	-42.2815	20.333	0.534783	-49.4866	22.4814	-6.37251	-13.3651	46.817	10.1922	-49.1236	29.1035	-19.8413	-44.0575	35.6851	-19.8669	-7.39335	59.5369	-8.9394	-45.802	42.3961	-31.6223	-38.0239	52.0813	-22.2958	-1.62624	74.9378	-26.6779	-39.7226	51.7482	-42.4053	-23.4039	60.5442	-27.5464	5.55454	94.6506	13.6504	2.93447	102.516	9.36277	34.9433	68.3919	32.39	28.321	
326	2.71667	32.5719	14.8511	43.4009	15.354	15.2643	11.4351	6.40526	15.2777	-23.009	7.14687	9.0792	-46.8408	38.6556	20.8796	-44.8896	24.7147	-4.0746	-50.6919	22.5287	-8.88051	-14.642	53.5787	7.15304	-48.1264	35.1255	-26.2036	-43.7922	37.9525	-21.9153	-5.10398	65.6904	-12.6467	-44.5253	48.6387	-39.3944	-35.6672	54.115	-25.3567	-1.27459	78.7144	-29.6429	-39.1349	55.9248	-45.1473	-20.0552	61.9807	-32.5961	7.23901	94.9633	12.763	4.71587	105.673	8.66079	38.0985	73.9804	27.8974	30.306	
327	2.725	36.9776	12.0932	37.8629	12.7934	13.4929	13.124	6.66993	9.68287	-19.6078	9.23916	3.25268	-49.2643	38.6671	20.4282	-43.0889	25.6304	-8.9231	-49.9776	24.8458	-11.0556	-12.3495	55.3755	0.350553	-50.0078	36.8012	-28.3918	-46.1038	42.2206	-23.5721	-3.73933	67.5315	-20.168	-45.1882	47.9176	-39.7699	-34.1992	55.3345	-26.5407	-0.0939399	81.3873	-32.4001	-36.6277	59.7414	-49.2475	-18.9585	67.9696	-30.125	8.60013	100.119	9.29938	3.54743	103.229	11.1827	38.0987	73.6222	28.0682	26.584	
328	2.73333	36.4134	12.2094	38.5513	18.2208	10.274	10.8561	6.83286	6.75871	-20.3606	4.36632	-0.872671	-49.6133	38.3762	16.2646	-43.4213	24.3624	-13.4366	-48.3163	25.9879	-13.0728	-12.3682	56.5566	-3.40155	-49.6492	35.0378	-32.8881	-39.9775	41.8301	-27.1436	-2.30883	63.4436	-22.782	-44.8562	50.9647	-45.6202	-30.5017	58.8689	-25.8146	3.43256	80.8966	-32.7233	-33.5891	58.2468	-49.522	-14.6279	64.6106	-35.0064	9.7919	98.9184	8.21	4.62279	106.491	6.88826	36.7582	72.4893	26.2355	25.7335	
329	2.74167	37.3898	13.2631	39.0123	17.0698	8.88917	11.4626	3.96595	5.16477	-22.5769	7.25586	-5.75611	-46.698	40.7776	11.9164	-43.1088	22.9183	-17.6183	-46.1306	29.509	-14.2876	-8.77104	53.4124	-10.0228	-49.6762	35.0592	-37.8184	-36.5471	37.8161	-26.2578	0.521094	68.2988	-26.7757	-41.0368	50.4123	-49.7406	-24.9414	54.7624	-30.7624	3.53468	81.5854	-39.5605	-32.1176	59.9356	-57.1707	-12.1713	66.9866	-34.5456	11.6391	97.2062	7.44024	4.09597	107.266	8.14079	35.8502	72.4651	29.2456	26.6562	
330	2.75	37.7872	14.8164	34.7158	14.7945	10.817	10.7959	5.89157	1.88308	-19.4567	4.21468	-9.58123	-48.9778	39.5285	7.53267	-43.3457	22.5364	-20.3322	-43.2085	25.3507	-15.7816	-8.79949	49.9561	-11.4389	-48.6707	32.2682	-39.2059	-36.8138	38.3716	-30.2236	1.84787	62.3377	-32.4509	-41.1462	42.2095	-48.4688	-21.2709	53.9943	-28.8193	6.75427	80.3743	-43.3166	-29.3602	55.7531	-56.8302	-10.206	63.0196	-35.5953	14.7847	96.6137	3.80812	4.5383	107.567	5.11382	34.5422	73.2703	26.4848	26.192	
331	2.75833	35.2073	18.9803	40.3886	14.1188	12.2522	8.77264	3.42988	2.10758	-22.1517	-0.122598	-10.0055	-45.2416	32.8943	5.88986	-45.8661	15.1806	-19.9683	-39.0027	24.3056	-17.2213	-7.33406	46.5599	-13.1384	-47.2395	28.6935	-40.9534	-31.3721	33.3428	-27.1994	4.20169	60.1783	-32.3441	-37.5841	39.6123	-50.5156	-21.4591	49.4773	-32.6267	7.99601	71.0966	-46.1413	-27.7915	48.8409	-56.7176	-6.6921	57.5821	-38.0037	17.175	98.7907	-1.13595	1.23774	106.585	1.73333	37.5749	75.242	23.7308	20.9	
332	2.76667	40.1064	19.4509	37.1437	13.28	14.5964	14.9311	-0.587583	4.88059	-18.5814	-1.09116	-11.7237	-42.4749	31.2088	6.86186	-44.327	14.554	-19.808	-39.5056	22.2557	-14.2476	-5.04213	43.0653	-15.6054	-44.9271	20.3405	-39.4962	-29.3671	32.3936	-24.2431	8.7191	53.0011	-38.7137	-36.6715	33.8878	-51.3323	-17.1642	44.5365	-27.2557	10.6601	63.7371	-52.7287	-24.6654	41.0403	-54.3537	-0.720255	57.5686	-35.6656	21.3754	97.2893	-5.5576	-2.73302	106.003	0.00938911	34.3717	78.3748	23.3284	22.5655	
333	2.775	40.4477	24.8313	36.7444	15.6748	18.6603	12.2958	-3.31409	8.14911	-13.9045	-6.86449	-8.68793	-34.7453	30.4675	5.06511	-41.7832	6.26147	-13.6088	-36.2529	18.0281	-4.27822	-0.782369	40.3051	-19.6977	-43.1	12.5447	-37.1311	-24.3393	27.0454	-23.2766	10.1409	42.6638	-41.425	-33.4832	23.5871	-49.1895	-10.4116	38.8938	-29.7334	13.4602	53.7085	-50.9464	-21.3521	32.4794	-54.9642	-0.0693153	50.1084	-33.5751	26.1695	93.9409	-11.595	-1.58562	104.973	-2.7205	31.9727	79.8255	22.8491	14.9582	
334	2.78333	42.9612	27.3423	33.5749	15.5344	22.8709	13.7996	-4.2298	11.339	-14.0235	-5.94197	-9.50503	-31.6853	28.2921	7.12092	-40.5309	2.8346	-12.2346	-29.9132	18.7492	1.44997	1.46621	31.9161	-18.1278	-40.3328	5.23502	-31.0844	-24.4296	21.1509	-16.9593	14.6172	39.0151	-39.179	-29.0518	16.3099	-48.2264	-7.17366	31.3364	-25.0432	16.2781	49.0397	-53.6478	-16.9013	23.8071	-51.4231	8.00852	40.4118	-34.2662	27.1858	88.9015	-15.2103	0.709112	102.24	-3.56161	34.084	81.1817	22.7995	17.4474	
335	2.79167	42.5229	34.4171	31.2266	16.0125	27.9058	11.8252	-6.04156	17.5595	-14.686	-12.1484	-2.49839	-28.516	22.2239	5.06173	-41.096	0.765383	-10.8462	-28.9538	16.1467	6.85389	1.30501	31.7817	-21.0566	-36.9737	1.62219	-30.5325	-18.1363	19.1559	-14.6181	16.5747	30.1313	-37.5538	-26.3071	7.83397	-40.9689	-4.40394	30.6602	-22.8735	21.7069	42.6908	-51.1512	-13.5174	17.5215	-49.8846	9.85939	32.212	-30.2909	30.0184	87.3532	-14.6738	3.30388	102.244	-6.69309	33.3504	79.3391	22.6898	16.9726	
336	2.8	48.5319	32.1369	28.8072	17.2647	35.8938	11.4477	-2.44317	19.3238	-14.0963	-12.4389	0.262127	-28.0038	26.4656	3.18682	-38.9324	-3.65792	-3.63625	-28.1264	18.5323	6.54343	1.6566	27.3791	-19.69	-35.97	-3.07543	-25.6	-18.269	18.4013	-8.76551	17.4334	25.1551	-38.056	-23.5851	3.07083	-40.0181	-1.93998	23.5576	-20.0209	21.3546	33.1374	-51.5884	-9.46836	10.9434	-43.1267	14.3407	29.8713	-25.2583	28.9614	82.8346	-21.6096	1.24297	98.8756	-13.1154	29.6061	82.5933	17.5281	13.5666	
337	2.80833	51.9733	38.2212	26.4462	21.8908	37.7159	4.22064	-0.77807	25.9177	-17.0981	-13.5298	3.40799	-31.9752	21.2162	3.77651	-42.9574	-3.8285	-3.89279	-26.0427	14.3951	10.5085	-0.467382	20.7189	-24.3074	-34.544	-7.51657	-19.6215	-15.5275	12.3301	-5.9654	15.8718	21.372	-41.8384	-18.6577	-1.51218	-35.9994	1.97191	22.5904	-13.8625	23.1562	27.535	-51.5181	-5.32404	5.72184	-35.5248	17.0124	28.3633	-19.1315	33.8454	81.9685	-27.7014	4.81195	95.8686	-14.3428	32.2819	81.294	13.1992	9.82086	
338	2.81667	57.3381	35.8971	26.0938	27.1688	40.7492	0.301213	1.43097	29.1523	-21.3976	-11.3848	8.60331	-33.0135	25.8262	-0.935365	-39.9711	-5.03855	2.51788	-26.8872	17.8192	11.8894	-0.321806	17.2964	-24.6265	-32.8921	-9.27394	-16.8834	-9.84504	12.6657	2.9565	14.449	15.5478	-41.1193	-16.5821	-4.59831	-27.7846	3.91939	20.4342	-11.2384	23.991	20.0372	-50.077	-0.534844	2.02308	-32.18	21.4617	25.6736	-14.6198	33.3183	78.4643	-28.1782	5.62112	94.1094	-18.2893	31.0885	85.259	9.8009	8.89907	
339	2.825	60.2983	36.1621	18.9242	34.0561	41.7816	3.08542	8.71568	30.3819	-22.6312	-10.1377	12.5805	-37.3569	22.8205	-2.20286	-41.9915	-3.85552	3.67669	-32.175	15.3784	16.5421	-2.38978	16.2656	-24.5488	-32.9525	-10.0727	-15.5467	-13.6872	15.4706	7.01812	15.0026	12.242	-39.2685	-14.9415	-7.16999	-25.3685	4.97782	23.0513	-5.37092	21.6945	17.8352	-48.9248	2.79509	-2.34861	-29.3982	20.0397	22.4065	-13.6954	34.4758	75.109	-33.8729	7.28544	95.39	-20.6011	35.8132	87.1965	7.20999	7.80032	
340	2.83333	63.7201	33.927	19.3603	36.4865	44.2136	-4.06949	10.9622	37.8415	-26.6801	-8.44867	19.3773	-37.6607	27.4537	-0.677949	-42.9102	-4.04527	1.79019	-28.516	14.2211	15.4209	-3.05716	14.1823	-24.4449	-31.9891	-11.2366	-9.43779	-12.5368	13.1389	6.55216	14.7696	11.1688	-38.1938	-13.94	-8.42987	-20.3307	5.50822	18.4481	-4.37782	20.7246	13.9835	-46.6118	4.02619	-4.39392	-26.0519	21.2659	23.8111	-10.8863	36.1982	71.8721	-34.6458	8.96499	89.93	-27.848	33.6277	86.4242	1.33657	5.01191	
341	2.84167	68.1087	36.9501	15.2623	42.566	39.9804	-6.12155	16.4365	37.2338	-29.4324	-4.13792	20.0089	-42.0665	25.1021	-3.05143	-44.3904	-3.08673	5.34369	-30.1564	15.95	17.6931	-4.66945	16.0804	-19.8041	-34.6376	-10.6446	-6.55177	-16.9294	16.7408	6.69859	12.781	10.5834	-36.656	-13.341	-8.49929	-18.3409	4.46919	19.1371	-4.64589	21.5075	7.84816	-46.0746	4.31275	-5.24551	-22.803	19.5956	22.3511	-10.0152	31.6304	72.5325	-35.1721	9.86608	93.2205	-25.3862	33.559	85.7159	-1.88554	7.00841	
342	2.85	71.1075	35.9856	11.3193	46.7617	40.2691	-7.92502	20.6267	33.3429	-31.1528	0.459674	21.3977	-45.2793	29.4227	-4.13479	-43.1919	-0.708265	4.3173	-35.5588	19.5384	19.0328	-6.71037	15.4592	-20.1836	-37.1054	-9.74739	-7.23564	-18.7749	14.6572	9.85144	8.63651	6.27638	-33.3181	-16.2498	-9.61439	-16.3378	0.939451	22.3762	-2.2994	17.3072	8.03831	-46.4538	2.99189	-4.4816	-17.7083	17.1735	23.5178	-11.1886	33.0287	69.278	-40.0427	7.28808	90.4345	-28.3756	35.5137	89.2366	-4.52062	8.08858	
343	2.85833	74.1666	33.8241	13.2714	50.2784	39.9525	-10.0288	25.1791	36.4556	-34.3003	3.77525	23.0425	-47.5544	30.0624	-2.95255	-48.9992	1.86233	7.97676	-39.1004	23.4248	19.7601	-9.23192	16.5874	-21.1165	-38.0292	-7.01441	-4.1529	-16.8685	21.2816	10.91	6.55811	10.2609	-32.0458	-17.9841	-8.41392	-14.498	-3.57709	25.1662	-0.566214	14.0851	10.0565	-43.1147	1.02873	-5.92138	-18.299	15.8776	25.82	-9.62956	30.9997	69.8952	-39.6438	11.3134	91.2856	-29.6229	37.6632	90.4371	-1.70764	7.11706	
344	2.86667	76.2256	34.206	8.91509	52.2588	41.7163	-16.1575	29.3297	35.4209	-35.4871	9.48221	23.509	-48.6573	32.7227	-5.34564	-50.0413	5.59627	8.20515	-42.0851	24.1221	22.1097	-14.6617	24.0384	-23.7559	-36.5671	-4.43293	-4.19507	-22.0054	21.6562	11.9685	2.84472	13.925	-32.5635	-21.7281	-5.71993	-13.8881	-9.11644	22.5559	-2.30314	12.2007	14.847	-44.0009	-2.57207	-3.78103	-17.1312	13.0924	24.7377	-8.61698	27.9166	68.948	-39.533	6.81153	91.4411	-30.092	37.602	91.1397	-5.41145	4.66776	
